<mxfile host="app.diagrams.net" modified="2024-02-23T07:19:29.364Z" agent="Mozilla/5.0 (Windows NT 10.0; Win64; x64) AppleWebKit/537.36 (KHTML, like Gecko) Chrome/121.0.0.0 Safari/537.36" version="23.1.5" etag="pD2jt4uHBribQ_0aEQZr" type="github">
  <diagram name="第 1 页" id="OyjIwlZL_Nj2LDqeHZL8">
    <mxGraphModel>
      <root>
        <mxCell id="0" />
        <mxCell id="1" parent="0" />
      </root>
    </mxGraphModel>
  </diagram>
</mxfile>
